<svg xmlns="http://www.w3.org/2000/svg" width="716" height="117" viewBox="0 0 716 117" fill="none"><path fill-rule="evenodd" clip-rule="evenodd" d="M441.4 5.79999C449.6 5.79999 457.4 7.8 464.5 12C471.4 16.1 477.1 21.8 481.2 28.7C485.4 35.8 487.4 43.6 487.4 51.8V70C487.4 78.2 485.4 86 481.2 93.1C477.1 100.1 471.4 105.7 464.5 109.8C457.4 114 449.6 116.1 441.4 116.1H387.6V5.79999H441.4ZM408.4 26.6V95.2H441.2C445.733 95.2 449.967 94.0667 453.9 91.8C457.767 89.5333 460.867 86.4333 463.2 82.5C465.5 78.7 466.6 74.5 466.6 70V51.8C466.6 47.3 465.5 43.2 463.2 39.3C460.867 35.3667 457.767 32.2667 453.9 30C449.967 27.7333 445.733 26.6 441.2 26.6H408.4ZM573.3 78L600.6 116.1H575.1L552 83.6H551.7H523V116.1H502.1V62.7H553C556.2 62.7 559.2 62 562 60.3C564.8 58.6333 567.033 56.4 568.7 53.6C570.3 50.8 571.1 47.8 571.1 44.6C571.1 41 570.2 37.7 568.2 34.7C566.3 31.7 563.7 29.6 560.3 28.2C557 26.8 552.1 26.6 548.5 26.6H502.1V5.79999H548.5C552.4 5.79999 556.3 5.89998 560.1 6.59998C563.5 7.19998 566.8 8.19998 569.9 9.59998C576.6 12.7 582.1 17.5 586.1 23.8C590 30.2 592 37.2 592 44.6C592 53.4 589.2 61.4 583.9 68.4C580.9 72.2 577.4 75.5 573.3 78ZM633.2 58.5L686.1 5.79999H715.6L667.3 53.9L711.7 116.1H686.2L652.4 68.8L633.2 87.9V116.1H612.4V5.79999H633.2V58.5ZM130.8 14.4V56.4H172.9V65.1H130.8V116H122.1V5.70001H187.1V14.4H130.8ZM336.9 77.5L364.4 116H353.9L327.6 79L323.4 79.1H286.2V116H277.6V70.4H325C330 70.4 334.7 69.2 339 66.6C343.3 64.1 346.7 60.7 349.3 56.4C351.8 52.1 353 47.4 353 42.4C353 36.8 351.6 31.7 348.6 27C345.6 22.3 341.4 18.9 336.2 16.8C331.3 14.7 325.1 14.4 319.9 14.4H277.5V5.70001H319.9C323.9 5.70001 327.8 5.89998 331.8 6.59998C334.9 7.09998 338.1 8.00002 341 9.40002C347.4 12.4 352.5 16.8 356.2 22.8C359.9 28.7 361.7 35.3 361.7 42.4C361.7 50.7 359.2 58.2 354.1 64.8C350.7 69.2 346.4 72.8 341.3 75.3L336.9 77.5ZM51.7 22.9L10.4 116H0L51.7 0.299988L103.4 116H93L51.7 22.9ZM244.5 14.4H205.3V5.70001H253.1V115.9H244.5V14.4Z" fill="#191919"></path></svg>