<svg width="40" height="40" viewBox="0 0 40 40" fill="none" xmlns="http://www.w3.org/2000/svg">
<path d="M21.3848 23.4637C21.4854 23.4602 21.5858 23.4769 21.6798 23.513C21.7739 23.5491 21.8597 23.6037 21.9321 23.6737C22.0046 23.7436 22.0622 23.8274 22.1016 23.9201C22.141 24.0129 22.1612 24.1125 22.1612 24.2133C22.1612 24.314 22.141 24.4137 22.1016 24.5064C22.0622 24.5991 22.0046 24.6829 21.9321 24.7529C21.8597 24.8228 21.7739 24.8775 21.6798 24.9135C21.5858 24.9496 21.4854 24.9663 21.3848 24.9628L15.7279 24.9628C15.5292 24.9627 15.3386 24.8837 15.1981 24.7431C15.0575 24.6026 14.9785 24.412 14.9784 24.2133L14.9784 18.5564C14.9748 18.4558 14.9916 18.3554 15.0277 18.2614C15.0637 18.1673 15.1184 18.0815 15.1883 18.0091C15.2583 17.9366 15.3421 17.879 15.4348 17.8396C15.5275 17.8002 15.6272 17.78 15.7279 17.78C15.8286 17.78 15.9283 17.8002 16.021 17.8396C16.1138 17.879 16.1976 17.9366 16.2675 18.0091C16.3375 18.0815 16.3921 18.1673 16.4282 18.2614C16.4643 18.3554 16.481 18.4558 16.4775 18.5564L16.4775 22.4031L23.3293 15.5512C23.47 15.4106 23.6607 15.3315 23.8597 15.3315C24.0586 15.3315 24.2493 15.4106 24.39 15.5512C24.5306 15.6919 24.6097 15.8826 24.6097 16.0815C24.6097 16.2804 24.5306 16.4712 24.39 16.6119L17.5381 23.4637L21.3848 23.4637Z" fill="#292F36"/>
<circle cx="20" cy="20" r="19.5" stroke="#292F36"/>
</svg>
