<svg xmlns="http://www.w3.org/2000/svg" width="65" height="64" viewBox="0 0 65 64" fill="none">
<g clip-path="url(#clip0_1_2160)">
<path d="M30.3636 53.0635C34.952 52.2545 39.5399 51.4425 44.1272 50.6277L44.2565 50.6001L37.1768 42.1791C33.2831 37.5476 30.0973 33.7402 30.0973 33.7186C30.0973 33.6771 37.4075 13.5459 37.4487 13.4742C37.4623 13.4505 42.4372 22.0394 49.5081 34.2948C56.1279 45.7682 61.5856 55.228 61.6363 55.3167L61.7285 55.4777L39.2292 55.4748L16.7295 55.4718L30.3636 53.0635ZM116.647 51.0269C113.222 50.8074 111.23 48.8573 110.702 45.2068C110.562 44.2359 110.561 44.2104 110.547 37.9067L110.533 31.8053H113.564L113.576 37.7065C113.587 43.0257 113.594 43.6493 113.644 44.0233C113.851 45.5419 114.262 46.5632 114.961 47.296C115.521 47.8826 116.176 48.2263 117.084 48.4083C117.512 48.4943 118.729 48.4943 119.119 48.4086C120.039 48.2064 120.776 47.8061 121.426 47.156C122.168 46.4152 122.716 45.364 122.981 44.1757L123.071 43.7748L123.081 37.8234L123.09 31.872H126.185V50.5835H123.122V49.0993C123.122 48.0907 123.111 47.6183 123.088 47.6263C123.069 47.6326 122.99 47.753 122.913 47.8938C122.385 48.8561 121.506 49.7366 120.542 50.2668C119.387 50.9023 118.229 51.1283 116.647 51.0269ZM151.409 51.012C150.2 50.921 148.927 50.5052 147.887 49.8614C145.694 48.5053 144.396 46.2693 144.016 43.1921C143.885 42.1275 143.869 40.6969 143.979 39.7922C144.224 37.7706 145.018 35.7858 146.15 34.3689C146.44 34.0059 147.098 33.3479 147.461 33.0582C148.439 32.2762 149.584 31.7296 150.807 31.4607C151.517 31.3056 152.766 31.2326 153.52 31.3026C155.415 31.4782 157.151 32.3699 158.33 33.7734C159.529 35.1998 160.188 37.1926 160.272 39.6463C160.285 40.0309 160.289 40.7049 160.28 41.1444L160.263 41.9436L153.629 41.9519L146.995 41.9602V42.2565C146.995 43.1577 147.214 44.184 147.593 45.0574C147.919 45.8106 148.481 46.6329 148.942 47.0309C149.886 47.847 151.041 48.3354 152.305 48.4528C152.774 48.4964 153.969 48.4505 154.502 48.3683C156.027 48.134 157.475 47.5365 158.645 46.6593C158.742 46.5861 158.839 46.5146 158.938 46.4449C158.972 46.4235 158.981 46.6931 158.98 47.8268L158.979 49.2351L158.665 49.4291C157.341 50.2475 155.825 50.7733 154.22 50.9699C153.74 51.0286 151.982 51.0553 151.409 51.012ZM157.183 39.1338C157.183 37.6241 156.547 35.9471 155.646 35.0836C155.004 34.4674 154.227 34.0907 153.304 33.9478C152.867 33.8802 151.947 33.9063 151.486 33.9991C150.512 34.196 149.707 34.6239 149.005 35.3179C148.266 36.0482 147.712 36.9355 147.363 37.9462C147.238 38.3097 147.091 38.9064 147.046 39.2385L147.024 39.3966H157.183L157.183 39.1338ZM67.1945 50.542C67.2022 50.5189 69.4551 44.601 72.2005 37.3907L77.1926 24.281H80.4003L80.5335 24.622C80.94 25.6649 90.5271 50.555 90.5271 50.5681C90.5271 50.5764 89.7591 50.5835 88.8208 50.5832L87.1144 50.5829L85.7325 46.9043L84.3506 43.2253H73.2242L73.1755 43.3501C73.1488 43.4189 72.5587 45.0743 71.8636 47.0285L70.6003 50.5823L68.8901 50.5829C67.5367 50.5832 67.1832 50.5749 67.1945 50.542ZM83.3355 40.4179C83.3355 40.4119 82.4056 37.8913 81.2689 34.8161C79.1427 29.0631 79.024 28.717 78.8559 27.7933C78.7773 27.3603 78.7373 27.3484 78.6904 27.7434C78.6572 28.0258 78.5125 28.658 78.4004 29.0085C78.345 29.1826 77.3877 31.8103 76.273 34.8484C75.158 37.8862 74.2461 40.3844 74.2461 40.4001C74.2461 40.4158 76.2911 40.4285 78.7907 40.4285C81.2903 40.4285 83.3355 40.4235 83.3355 40.4179ZM91.5591 50.1043V49.6254L97.1022 42.0056L102.645 34.3858L97.6265 34.3689L92.608 34.3523L92.5991 33.0789L92.5905 31.8053H107.108V32.6655L101.564 40.3268C98.5152 44.5408 96.0206 47.9955 96.0206 48.0041C96.0206 48.0127 98.4853 48.0199 101.498 48.0199H106.975V50.5835H91.5591V50.1043ZM132.234 50.5613C132.222 50.5491 132.212 46.3239 132.212 41.1723V31.8053H135.242V33.7364C135.242 34.7986 135.254 35.6675 135.27 35.6675C135.286 35.6675 135.36 35.4937 135.434 35.2811C135.775 34.3075 136.365 33.3977 137.127 32.6744C137.812 32.0232 138.595 31.6335 139.52 31.4844C139.78 31.4429 140 31.4346 140.519 31.4482C141.171 31.4651 141.512 31.5129 141.909 31.6424L142.034 31.6834V34.8283L141.676 34.6491C141.044 34.3327 140.42 34.2073 139.67 34.2464C139.182 34.2716 138.861 34.3345 138.471 34.4807C137.679 34.7734 137.007 35.3221 136.562 36.0399C135.903 37.0909 135.434 38.4417 135.295 39.6833C135.27 39.906 135.256 41.7206 135.25 45.2979L135.241 50.5835H133.749C132.928 50.5835 132.246 50.5734 132.234 50.5613ZM3.36177 50.4954C3.36177 50.4836 6.69763 44.6929 10.7749 37.6271L18.1879 24.78L26.827 17.5304C31.5782 13.543 35.4787 10.2753 35.4944 10.2694C35.5099 10.2635 35.4476 10.4206 35.3554 10.6187C35.2634 10.8171 31.0421 19.8713 25.9747 30.7395L16.761 50.4999L10.0614 50.5085C6.37676 50.5132 3.36177 50.5073 3.36177 50.4954Z" fill="#0089D6"/>
</g>
<defs>
<clipPath id="clip0_1_2160">
<rect width="68" height="68" fill="white" transform="translate(-1.1367 -1.6366)"/>
</clipPath>
</defs>
</svg>