<svg width="139" height="53" viewBox="0 0 139 53" fill="none" xmlns="http://www.w3.org/2000/svg">
<rect x="2.82532" y="10" width="20.0943" height="20.0943" rx="4" fill="#6FB3B4"/>
<path fill-rule="evenodd" clip-rule="evenodd" d="M16.3728 42.6652C22.3778 42.6652 27.2459 37.9053 27.2459 32.0336C27.2459 26.162 22.3778 21.4021 16.3728 21.4021C11.8529 21.4021 7.97715 24.0987 6.33649 27.9362L0.334547 38.7442C-0.63899 40.4973 0.628697 42.6513 2.63397 42.6513H14.9131C15.0595 42.6513 15.202 42.6398 15.34 42.6178C15.6799 42.6492 16.0244 42.6652 16.3728 42.6652Z" fill="#F4BE54"/>
<path fill-rule="evenodd" clip-rule="evenodd" d="M16.3728 42.6652C22.3778 42.6652 27.2459 37.9053 27.2459 32.0336C27.2459 26.162 22.3778 21.4021 16.3728 21.4021C11.8529 21.4021 7.97715 24.0987 6.33649 27.9362L0.334547 38.7442C-0.63899 40.4973 0.628697 42.6513 2.63397 42.6513H14.9131C15.0595 42.6513 15.202 42.6398 15.34 42.6178C15.6799 42.6492 16.0244 42.6652 16.3728 42.6652Z" fill="#FDB323"/>
<path d="M37.1659 33.8325V18.2325H43.3099C44.9259 18.2325 46.1819 18.6005 47.0779 19.3365C47.9899 20.0725 48.4459 21.0965 48.4459 22.4085C48.4459 23.2245 48.2779 23.8885 47.9419 24.4005C47.6219 24.9125 47.1659 25.2965 46.5739 25.5525C45.9819 25.8085 45.2859 25.9765 44.4859 26.0565L44.5339 25.9125C45.1259 25.9445 45.6859 26.0245 46.2139 26.1525C46.7419 26.2645 47.2059 26.4485 47.6059 26.7045C48.0219 26.9605 48.3499 27.3125 48.5899 27.7605C48.8299 28.2085 48.9499 28.7845 48.9499 29.4885C48.9499 30.4325 48.7419 31.2165 48.3259 31.8405C47.9099 32.4645 47.3259 32.9445 46.5739 33.2805C45.8379 33.6005 44.9899 33.7845 44.0299 33.8325H37.1659ZM39.0859 32.0325H43.5499C44.6379 32.0325 45.4859 31.8325 46.0939 31.4325C46.7179 31.0165 47.0299 30.3685 47.0299 29.4885C47.0299 28.7845 46.8299 28.2565 46.4299 27.9045C46.0459 27.5525 45.5499 27.3205 44.9419 27.2085C44.3339 27.0805 43.7099 27.0165 43.0699 27.0165H39.0859V32.0325ZM39.0859 25.2165H43.0699C44.1579 25.2165 45.0059 24.9845 45.6139 24.5205C46.2379 24.0405 46.5499 23.3605 46.5499 22.4805C46.5499 21.6165 46.2379 20.9925 45.6139 20.6085C45.0059 20.2245 44.2379 20.0325 43.3099 20.0325H39.0859V25.2165ZM50.515 21.8325H52.579L56.875 33.3525L55.195 33.8325L50.515 21.8325ZM61.675 21.8325L54.979 38.6325H52.891L55.795 32.1525L59.635 21.8325H61.675ZM62.8722 21.8325H69.9282V23.6325H62.8722V21.8325ZM65.4402 18.7125H67.3602V33.8325H65.4402V18.7125ZM80.4582 29.9685H82.2582C82.1302 30.7525 81.8422 31.4565 81.3942 32.0805C80.9622 32.6885 80.3862 33.1765 79.6662 33.5445C78.9622 33.8965 78.1462 34.0725 77.2182 34.0725C76.0982 34.0725 75.0902 33.8085 74.1942 33.2805C73.2982 32.7365 72.5862 32.0005 72.0582 31.0725C71.5462 30.1285 71.2902 29.0565 71.2902 27.8565C71.2902 26.6565 71.5382 25.5845 72.0342 24.6405C72.5462 23.6965 73.2422 22.9525 74.1222 22.4085C75.0022 21.8645 75.9942 21.5925 77.0982 21.5925C78.2662 21.5925 79.2502 21.8565 80.0502 22.3845C80.8662 22.8965 81.4662 23.6565 81.8502 24.6645C82.2502 25.6565 82.4102 26.8805 82.3302 28.3365H73.2102C73.2902 29.1205 73.5062 29.8085 73.8582 30.4005C74.2102 30.9925 74.6742 31.4565 75.2502 31.7925C75.8262 32.1125 76.4822 32.2725 77.2182 32.2725C78.0342 32.2725 78.7222 32.0645 79.2822 31.6485C79.8582 31.2165 80.2502 30.6565 80.4582 29.9685ZM77.1702 23.3925C76.1782 23.3925 75.3462 23.6805 74.6742 24.2565C74.0022 24.8325 73.5542 25.6165 73.3302 26.6085H80.3622C80.2982 25.5525 79.9542 24.7525 79.3302 24.2085C78.7222 23.6645 78.0022 23.3925 77.1702 23.3925Z" fill="#6FB3B4"/>
<path d="M98.5819 28.6245C98.4219 29.7445 98.0379 30.7125 97.4299 31.5285C96.8219 32.3445 96.0459 32.9765 95.1019 33.4245C94.1739 33.8565 93.1339 34.0725 91.9819 34.0725C90.9099 34.0725 89.9179 33.8885 89.0059 33.5205C88.0939 33.1365 87.2939 32.5925 86.6059 31.8885C85.9339 31.1845 85.4059 30.3365 85.0219 29.3445C84.6379 28.3525 84.4459 27.2485 84.4459 26.0325C84.4459 24.8005 84.6379 23.6965 85.0219 22.7205C85.4059 21.7285 85.9339 20.8805 86.6059 20.1765C87.2939 19.4725 88.0939 18.9365 89.0059 18.5685C89.9179 18.1845 90.9099 17.9925 91.9819 17.9925C93.1499 17.9925 94.1979 18.2165 95.1259 18.6645C96.0699 19.0965 96.8459 19.7285 97.4539 20.5605C98.0619 21.3765 98.4459 22.3525 98.6059 23.4885H96.8299C96.6059 22.6885 96.2539 22.0165 95.7739 21.4725C95.3099 20.9285 94.7499 20.5125 94.0939 20.2245C93.4379 19.9365 92.7339 19.7925 91.9819 19.7925C91.0059 19.7925 90.0859 20.0325 89.2219 20.5125C88.3739 20.9925 87.6859 21.6965 87.1579 22.6245C86.6299 23.5525 86.3659 24.6885 86.3659 26.0325C86.3659 27.3765 86.6299 28.5125 87.1579 29.4405C87.6859 30.3685 88.3739 31.0725 89.2219 31.5525C90.0859 32.0325 91.0059 32.2725 91.9819 32.2725C92.7339 32.2725 93.4299 32.1365 94.0699 31.8645C94.7259 31.5765 95.2859 31.1605 95.7499 30.6165C96.2299 30.0725 96.5819 29.4085 96.8059 28.6245H98.5819ZM101.376 21.8325H103.296V33.8325H101.376V21.8325ZM107.136 23.6325C106.32 23.6325 105.632 23.8405 105.072 24.2565C104.528 24.6565 104.096 25.1525 103.776 25.7445C103.472 26.3205 103.272 26.8805 103.176 27.4245L103.152 26.0325C103.152 25.8885 103.184 25.6485 103.248 25.3125C103.312 24.9765 103.432 24.6005 103.608 24.1845C103.784 23.7525 104.016 23.3445 104.304 22.9605C104.608 22.5605 104.992 22.2325 105.456 21.9765C105.92 21.7205 106.48 21.5925 107.136 21.5925V23.6325ZM113.834 34.0725C112.89 34.0725 112.018 33.8085 111.218 33.2805C110.434 32.7365 109.802 32.0005 109.322 31.0725C108.858 30.1285 108.626 29.0565 108.626 27.8565C108.626 26.6565 108.866 25.5845 109.346 24.6405C109.826 23.6965 110.474 22.9525 111.29 22.4085C112.122 21.8645 113.05 21.5925 114.074 21.5925C115.194 21.5925 116.042 21.8805 116.618 22.4565C117.21 23.0165 117.61 23.7685 117.818 24.7125C118.042 25.6565 118.154 26.7045 118.154 27.8565C118.154 28.4645 118.09 29.1285 117.962 29.8485C117.834 30.5525 117.61 31.2325 117.29 31.8885C116.986 32.5285 116.554 33.0565 115.994 33.4725C115.434 33.8725 114.714 34.0725 113.834 34.0725ZM114.314 32.2485C115.13 32.2485 115.802 32.0485 116.33 31.6485C116.874 31.2485 117.274 30.7205 117.53 30.0645C117.786 29.3925 117.914 28.6565 117.914 27.8565C117.914 26.9765 117.778 26.2085 117.506 25.5525C117.25 24.8805 116.85 24.3605 116.306 23.9925C115.778 23.6085 115.114 23.4165 114.314 23.4165C113.114 23.4165 112.186 23.8405 111.53 24.6885C110.874 25.5205 110.546 26.5765 110.546 27.8565C110.546 28.7045 110.706 29.4645 111.026 30.1365C111.362 30.7925 111.81 31.3125 112.37 31.6965C112.946 32.0645 113.594 32.2485 114.314 32.2485ZM117.914 21.8325H119.834V33.8325H118.082C118.082 33.8325 118.066 33.6885 118.034 33.4005C118.018 33.1125 117.994 32.7765 117.962 32.3925C117.93 32.0085 117.914 31.6885 117.914 31.4325V21.8325ZM122.122 21.8325H129.178V23.6325H122.122V21.8325ZM128.338 17.0325H129.442V18.9525H128.338C127.938 18.9365 127.57 18.9925 127.234 19.1205C126.914 19.2485 126.658 19.4725 126.466 19.7925C126.274 20.0965 126.178 20.5365 126.178 21.1125V33.8325H124.258V21.1125C124.258 20.1525 124.426 19.3765 124.762 18.7845C125.114 18.1765 125.594 17.7365 126.202 17.4645C126.826 17.1765 127.538 17.0325 128.338 17.0325ZM130.442 21.8325H137.498V23.6325H130.442V21.8325ZM133.01 18.7125H134.93V33.8325H133.01V18.7125Z" fill="#EDA02E"/>
</svg>
