<svg xmlns="http://www.w3.org/2000/svg" width="62" height="50" viewBox="0 0 62 50" fill="none">
<path d="M39.277 14.0783H41.1266L46.3987 8.80617L46.6572 6.56698C36.8449 -2.09486 21.8696 -1.15913 13.2078 8.65325C10.8011 11.3767 9.05708 14.6208 8.10315 18.1307C8.68934 17.8904 9.34107 17.8503 9.95276 18.0214L20.497 16.2811C20.497 16.2811 21.0322 15.3927 21.3125 15.4473C26.0021 10.2953 33.8957 9.69456 39.3134 14.0783H39.277Z" fill="#EA4335"/>
<path d="M53.9101 18.1319C52.6977 13.668 50.2109 9.65571 46.752 6.59003L39.3536 13.9885C42.4775 16.5408 44.258 20.3893 44.1815 24.4234V25.7378C47.8188 25.7378 50.768 28.687 50.768 32.3243C50.768 35.9616 47.8188 38.9108 44.1815 38.9108H31.0085L29.6941 40.2434V48.1443L31.0085 49.4587H44.1815C53.6407 49.5315 61.3705 41.9219 61.4433 32.4627C61.487 26.7172 58.6579 21.3432 53.9101 18.1319Z" fill="#4285F4"/>
<path d="M17.8169 49.3728H30.9898V38.8286H17.8169C16.8775 38.8286 15.9527 38.6247 15.0971 38.2351L13.2475 38.8104L7.93895 44.0825L7.47655 45.9321C10.4512 48.1822 14.0849 49.391 17.8169 49.3728Z" fill="#34A853"/>
<path d="M17.817 15.1698C8.35417 15.2244 0.733641 22.9396 0.788256 32.4024C0.821024 37.6854 3.28595 42.659 7.47669 45.8776L15.1154 38.2389C11.8022 36.7424 10.3276 32.8393 11.824 29.5261C13.3204 26.2128 17.2235 24.7382 20.5368 26.2346C21.9968 26.8936 23.1656 28.066 23.8282 29.5261L31.467 21.8873C28.2192 17.6347 23.1656 15.1479 17.817 15.1698Z" fill="#FBBC05"/>
</svg>