<svg xmlns="http://www.w3.org/2000/svg" width="105" height="55" viewBox="0 0 105 55" fill="none">
<path d="M5.26653 47.5212H8.37876V35.2446L13.1966 45.9469C13.7652 47.2421 14.5434 47.7006 16.0694 47.7006C17.5957 47.7006 18.3439 47.2424 18.9126 45.9469L23.7305 35.2446V47.521H26.8428V35.2647C26.8428 34.0688 26.3639 33.4909 25.3765 33.1922C23.0124 32.4547 21.4263 33.0924 20.708 34.6868L15.9798 45.2492L11.4013 34.6868C10.713 33.0924 9.09707 32.4547 6.73297 33.1922C5.7454 33.4909 5.26653 34.069 5.26653 35.2644V47.5212ZM29.4305 37.5287H32.5418V44.2922C32.5127 44.6597 32.6598 45.5221 34.3647 45.5487C35.2345 45.5625 41.0778 45.5487 41.1323 45.5487V37.4958H44.2508C44.2651 37.4958 44.2477 48.478 44.2479 48.5247C44.2649 51.2332 40.8837 51.8215 39.3251 51.867H29.4979V49.7753C29.5154 49.7753 39.3178 49.7775 39.3426 49.7751C41.3456 49.5638 41.109 48.5692 41.1088 48.2344V47.4191H34.4937C31.4159 47.3908 29.4562 46.0488 29.432 44.5055C29.4296 44.3624 29.4984 37.5963 29.4303 37.5285L29.4305 37.5287Z" fill="#00618A"/>
<path d="M46.6494 47.5212H55.5968C56.6443 47.5212 57.6617 47.3021 58.4699 46.9233C59.8164 46.3057 60.4748 45.4688 60.4748 44.3724V42.1006C60.4748 41.2036 59.7267 40.3665 58.2602 39.8087C57.4821 39.5095 56.5246 39.3502 55.5968 39.3502H51.8259C50.5696 39.3502 49.971 38.9716 49.8215 38.1347C49.7914 38.0349 49.7914 37.955 49.7914 37.8555V36.4408C49.7914 36.3609 49.7914 36.281 49.8215 36.1815C49.971 35.5438 50.3003 35.3642 51.4074 35.2647C51.4971 35.2647 51.6168 35.2446 51.7067 35.2446H60.5945V33.1723H51.8562C50.5994 33.1723 49.9409 33.2519 49.3426 33.4311C47.4872 34.0092 46.6792 34.926 46.6792 36.5202V38.3339C46.6792 39.7291 48.2653 40.9248 50.9285 41.2036C51.228 41.2235 51.5271 41.2434 51.8262 41.2434H55.0581C55.1781 41.2434 55.2978 41.2434 55.3875 41.2634C56.375 41.3433 56.7938 41.5225 57.0933 41.8813C57.2727 42.0604 57.3325 42.24 57.3325 42.4393V44.2525C57.3325 44.4721 57.183 44.7512 56.884 44.9902C56.6145 45.2294 56.1656 45.3889 55.567 45.4289C55.4473 45.4289 55.3577 45.4487 55.2379 45.4487H46.6491V47.521L46.6494 47.5212ZM79.8898 43.9141C79.8898 46.0464 81.4757 47.2424 84.6779 47.4815C84.9769 47.5014 85.2765 47.5212 85.5755 47.5212H93.6854V45.4487H85.5157C83.6903 45.4487 83.002 44.9902 83.002 43.8942V33.1721H79.8898V43.9141ZM62.4611 44.0228V36.6335C62.4611 34.7563 63.7807 33.6177 66.3893 33.2582C66.6675 33.2186 66.9481 33.1986 67.2291 33.1984H73.1365C73.4363 33.1984 73.7065 33.2185 74.0063 33.2582C76.6152 33.6177 77.9345 34.7563 77.9345 36.6335V44.0225C77.9345 45.5453 77.3742 46.3607 76.0828 46.8918L79.1485 49.656H75.5348L73.0546 47.4196L70.5577 47.5776H67.2291C66.6593 47.5776 66.0597 47.4975 65.3998 47.3179C63.4208 46.7788 62.4611 45.7402 62.4611 44.0225V44.0228ZM65.82 43.8432C65.82 43.9431 65.8501 44.0429 65.8801 44.1627C66.06 45.0214 66.8697 45.5008 68.0991 45.5008H70.9266L68.3293 43.1585H71.9427L74.2082 45.2013C74.6255 44.979 74.9003 44.6392 74.9963 44.2027C75.0261 44.1029 75.0261 44.0029 75.0261 43.9032V36.8136C75.0261 36.7337 75.0261 36.6337 74.9963 36.5337C74.8162 35.7348 74.0066 35.2758 72.8072 35.2758H68.0991C66.7199 35.2758 65.8203 35.875 65.8203 36.8136V43.8432H65.82Z" fill="#E48E00"/>
<path d="M96.4232 29.7339C94.5104 29.6821 93.049 29.8597 91.7997 30.386C91.4447 30.5357 90.8786 30.5395 90.8206 30.984C91.0157 31.1883 91.046 31.4934 91.2011 31.7447C91.4992 32.2269 92.0031 32.873 92.4524 33.212C92.9434 33.5824 93.4494 33.9782 93.9758 34.299C94.912 34.8691 95.9572 35.1947 96.8587 35.766C97.39 36.1028 97.9178 36.5269 98.4362 36.907C98.6923 37.0949 98.8647 37.3871 99.1976 37.505V37.4505C99.0227 37.228 98.9776 36.922 98.8169 36.6896L98.1097 35.9832C97.4183 35.0664 96.5405 34.2612 95.6075 33.5923C94.8635 33.0587 93.1981 32.3383 92.8876 31.473L92.8331 31.4186C93.3607 31.3593 93.9784 31.1685 94.4653 31.0385C95.2832 30.8191 96.0139 30.8758 96.8587 30.6579C97.2392 30.5492 97.6202 30.4403 98.0012 30.3318V30.1144C97.5742 29.6767 97.2698 29.0976 96.804 28.7016C95.5862 27.6654 94.2567 26.6303 92.8876 25.7672C92.1284 25.2884 91.19 24.9773 90.3854 24.5715C90.1147 24.4352 89.639 24.3643 89.4603 24.1367C89.0377 23.5986 88.8075 22.9161 88.4813 22.2891C87.7986 20.9758 87.128 19.5411 86.5231 18.159C86.1104 17.2168 85.8409 16.2877 85.3264 15.4421C82.8564 11.3853 80.1976 8.93708 76.0789 6.53022C75.2025 6.01844 74.1474 5.81605 73.0323 5.55217L71.2372 5.44323C70.872 5.29071 70.492 4.84454 70.1491 4.62811C68.7847 3.76724 65.2852 1.89419 64.2746 4.35649C63.6365 5.91071 65.2282 7.42741 65.7975 8.21493C66.1971 8.76738 66.7087 9.38664 66.9942 10.0081C67.182 10.4165 67.2145 10.8259 67.3752 11.258C67.7707 12.3225 68.1144 13.4804 68.6262 14.464C68.8848 14.9617 69.1698 15.4861 69.4967 15.9311C69.6971 16.2044 70.0405 16.3247 70.0948 16.7464C69.7589 17.2161 69.7398 17.9448 69.551 18.5396C68.7008 21.2176 69.0215 24.5459 70.2582 26.5279C70.6377 27.1362 71.5315 28.4411 72.7604 27.9407C73.8355 27.5032 73.5953 26.1478 73.9028 24.9521C73.9724 24.6809 73.9295 24.4815 74.0659 24.2999V24.3544L75.045 26.3105C75.7696 27.4761 77.056 28.6946 78.1458 29.5167C78.711 29.943 79.156 30.6802 79.8866 30.9295V30.8751H79.8321C79.6906 30.6548 79.4691 30.5633 79.2883 30.386C78.8625 29.9692 78.3892 29.4509 78.037 28.9732C77.0458 27.6289 76.1697 26.1577 75.3717 24.626C74.9905 23.8949 74.6592 23.0877 74.3378 22.3436C74.214 22.0567 74.2155 21.6229 73.9574 21.474C73.6055 22.0194 73.0871 22.4605 72.8149 23.1045C72.3797 24.1338 72.3234 25.3891 72.1623 26.6908C72.0668 26.7249 72.109 26.7014 72.0532 26.745C71.2956 26.5625 71.0293 25.7834 70.7479 25.115C70.0354 23.4247 69.9034 20.7029 70.5298 18.7572C70.6922 18.2537 71.4251 16.668 71.1284 16.2032C70.9869 15.7391 70.5196 15.4706 70.2582 15.1162C69.9346 14.6778 69.6116 14.1006 69.3876 13.5944C68.8048 12.2765 68.5326 10.7971 67.919 9.46484C67.6258 8.8279 67.1297 8.18345 66.7223 7.6172C66.2713 6.99019 65.7662 6.5278 65.4168 5.76933C65.2925 5.49988 65.1235 5.06848 65.3077 4.79128C65.3666 4.60439 65.4492 4.52619 65.6344 4.46519C65.9499 4.22237 66.8287 4.54604 67.1573 4.68258C68.0298 5.04451 68.7578 5.38925 69.4967 5.87803C69.8515 6.1131 70.2102 6.5675 70.6389 6.69339H71.1284C71.8942 6.86914 72.7522 6.74786 73.4676 6.96501C74.7321 7.34897 75.8654 7.94596 76.8944 8.59525C80.0301 10.5729 82.5937 13.3882 84.3473 16.7464C84.6294 17.287 84.7515 17.8032 84.9999 18.3767C85.5014 19.5334 86.1329 20.7235 86.6317 21.8545C87.1294 22.9827 87.6146 24.1217 88.3182 25.0608C88.6882 25.5544 90.1169 25.8193 90.7659 26.0931C91.2212 26.2853 91.9669 26.4855 92.3981 26.745C93.2216 27.2413 94.0194 27.832 94.7918 28.3755C95.1778 28.6471 96.3641 29.2429 96.4232 29.7339Z" fill="#00618A"/>
<path fill-rule="evenodd" clip-rule="evenodd" d="M72.1078 9.03005C71.7089 9.02279 71.4268 9.07363 71.1284 9.13851V9.19298H71.183C71.3732 9.58347 71.7089 9.83476 71.9444 10.171C72.1256 10.5515 72.307 10.9319 72.4885 11.3122L72.5428 11.258C72.8796 11.0208 73.034 10.6414 73.0323 10.0626C72.8973 9.9207 72.8772 9.74252 72.7604 9.5733C72.6048 9.34767 72.3038 9.21985 72.1078 9.03005Z" fill="#00618A"/>
<path fill-rule="evenodd" clip-rule="evenodd" d="M95.1461 45.3897C95.1461 46.7584 96.2289 47.6808 97.4399 47.6808C98.6509 47.6808 99.7335 46.7584 99.7335 45.3897C99.7335 44.0211 98.6509 43.0988 97.4399 43.0988C96.2289 43.0988 95.1463 44.0211 95.1463 45.3897H95.1461ZM99.2197 45.3897C99.2197 46.4282 98.4248 47.2044 97.4399 47.2044C96.4431 47.2044 95.6601 46.4282 95.6601 45.3897C95.6601 44.3511 96.4429 43.5749 97.4399 43.5749C98.4248 43.5749 99.2197 44.3511 99.2197 45.3897ZM98.0579 46.6969H98.5714L97.8194 45.5487C98.2229 45.5059 98.5285 45.3103 98.5285 44.8338C98.5285 44.3022 98.1924 44.0824 97.5441 44.0824H96.5226V46.6969H96.963V45.5669H97.3725L98.0579 46.6969ZM96.963 45.2003V44.4489H97.4704C97.7336 44.4489 98.0516 44.4978 98.0516 44.8033C98.0516 45.1696 97.7642 45.2003 97.4336 45.2003H96.963Z" fill="#E48E00"/>
</svg>