<svg xmlns="http://www.w3.org/2000/svg" width="46" height="47" viewBox="0 0 46 47" fill="none">
<path d="M34.3324 34.3121C34.6337 31.8025 34.5434 31.4343 36.4127 31.8408L36.8873 31.8825C38.3247 31.9479 40.205 31.6513 41.3097 31.1382C43.6876 30.0348 45.0977 28.1926 42.7529 28.6766C37.4044 29.78 37.0366 27.9689 37.0366 27.9689C42.6844 19.5891 45.0454 8.95162 43.0075 6.3478C37.4491 -0.754498 27.8278 2.60412 27.6668 2.69132L27.6155 2.70089C26.5587 2.48151 25.376 2.3505 24.0474 2.32902C21.627 2.28925 19.7904 2.96355 18.3973 4.02024C18.3973 4.02024 1.23325 -3.05111 2.03175 12.9132C2.20157 16.3092 6.89964 38.6106 12.503 31.8745C14.551 29.4114 16.5302 27.3288 16.5302 27.3288C17.5129 27.9817 18.6896 28.3147 19.9237 28.1951L20.019 28.1138C19.9892 28.4196 20.0023 28.7188 20.0572 29.0729C18.614 30.6857 19.0381 30.969 16.1521 31.5629C13.2324 32.1648 14.9477 33.236 16.0674 33.516C17.4251 33.8555 20.5661 34.3365 22.6889 31.3654L22.6044 31.7044C23.1706 32.1574 23.1323 34.9605 23.2126 36.9631C23.293 38.9659 23.4271 40.8349 23.8353 41.9367C24.2436 43.0384 24.7253 45.8766 28.5181 45.0637C31.688 44.3844 34.1116 43.4067 34.3324 34.3121Z" fill="black" stroke="black" stroke-width="2.80039"/>
<path d="M42.7534 28.6764C37.4044 29.7798 37.0366 27.9687 37.0366 27.9687C42.6844 19.5883 45.0454 8.95069 43.0079 6.34719C37.4495 -0.754686 27.8278 2.60404 27.6672 2.69124L27.6155 2.70049C26.5587 2.48111 25.376 2.35042 24.0468 2.32873C21.6264 2.28906 19.7904 2.96326 18.3973 4.01974C18.3973 4.01974 1.23293 -3.0513 2.03122 12.9129C2.20104 16.3092 6.89901 38.6105 12.5026 31.8745C14.5507 29.4113 16.5295 27.3287 16.5295 27.3287C17.5124 27.9816 18.6891 28.3147 19.9226 28.195L20.0184 28.1137C19.9886 28.4195 20.0022 28.7187 20.0568 29.0729C18.6132 30.6856 19.0374 30.9689 16.1517 31.5628C13.2317 32.1647 14.9471 33.2359 16.067 33.5159C17.4248 33.8555 20.5659 34.3364 22.6884 31.3653L22.6037 31.7043C23.1693 32.1573 23.5665 34.6511 23.5 36.9118C23.4334 39.1723 23.3889 40.7243 23.8346 41.9366C24.2803 43.1489 24.7245 45.8765 28.518 45.0636C31.6879 44.3843 33.3305 42.624 33.559 39.6876C33.7212 37.6002 34.0882 37.9087 34.1113 36.0423L34.4057 35.1588C34.7451 32.3291 34.4596 31.416 36.4125 31.8407L36.8871 31.8823C38.3245 31.9477 40.2058 31.6512 41.3099 31.138C43.6874 30.0346 45.0975 28.1924 42.7532 28.6764H42.7534Z" fill="#336791"/>
<path d="M22.9181 30.2985C22.7708 35.564 22.9551 40.8662 23.4703 42.1548C23.9858 43.4434 25.0891 45.9499 28.883 45.1371C32.0525 44.4576 33.2058 43.1426 33.7062 40.2402C34.0748 38.1046 34.7853 32.1738 34.8765 30.9587M18.3708 3.90212C18.3708 3.90212 1.19475 -3.11798 1.99325 12.8463C2.16308 16.2425 6.86136 38.5446 12.4648 31.8082C14.5125 29.3448 16.3644 27.4127 16.3644 27.4127M27.6484 2.62084C27.0538 2.80725 37.2027 -1.08924 42.9705 6.28072C45.0078 8.88433 42.6469 19.5221 36.9992 27.9027" stroke="white" stroke-width="0.933465" stroke-linecap="round" stroke-linejoin="round"/>
<path d="M36.9991 27.9026C36.9991 27.9026 37.3671 29.7142 42.7163 28.61C45.06 28.126 43.6496 29.9684 41.2725 31.0723C39.3218 31.9777 34.9481 32.2097 34.8767 30.9587C34.6928 27.7307 37.1785 28.7114 36.9991 27.9026ZM36.9991 27.9026C36.8369 27.1741 35.7254 26.4592 34.99 24.6765C34.3481 23.1204 26.1856 11.1874 37.2537 12.9597C37.6591 12.8758 34.367 2.43186 24.0088 2.26204C13.6529 2.09221 13.9927 14.9974 13.9927 14.9974" stroke="white" stroke-width="0.933465" stroke-linecap="round" stroke-linejoin="bevel"/>
<path d="M20.019 29.0065C18.5753 30.6193 18.9999 30.9025 16.1139 31.4967C13.194 32.0985 14.9095 33.1697 16.0292 33.4496C17.3869 33.7893 20.5281 34.2703 22.6505 31.2984C23.2968 30.3936 22.6467 28.9498 21.7589 28.5818C21.3299 28.4042 20.7563 28.1814 20.019 29.0065Z" stroke="white" stroke-width="0.933465" stroke-linecap="round" stroke-linejoin="round"/>
<path d="M19.9245 28.9784C19.779 28.0301 20.2361 26.9017 20.7259 25.5816C21.462 23.6009 23.1603 21.6199 21.8017 15.337C20.789 10.655 13.9968 14.3626 13.9926 14.9974C13.9884 15.6321 14.2998 18.2153 13.8791 21.2234C13.3302 25.1487 16.3768 28.4685 19.8851 28.1289" stroke="white" stroke-width="0.933465" stroke-linecap="round" stroke-linejoin="round"/>
<path d="M18.3084 14.9023C18.2777 15.1192 18.7053 15.6977 19.2629 15.775C19.8194 15.8527 20.2958 15.4005 20.326 15.1839C20.3562 14.9671 19.9292 14.7282 19.3714 14.6506C18.8145 14.573 18.3379 14.686 18.3085 14.9023H18.3084Z" fill="white" stroke="white" stroke-width="0.311155"/>
<path d="M35.2614 14.4602C35.2916 14.6772 34.8645 15.2556 34.3069 15.333C33.7499 15.4106 33.2735 14.9584 33.243 14.7418C33.2135 14.525 33.6407 14.2861 34.1978 14.2085C34.7549 14.1309 35.2312 14.2439 35.2614 14.4603V14.4602Z" fill="white" stroke="white" stroke-width="0.155615"/>
<path d="M37.2537 12.9597C37.3454 14.6604 36.8873 15.8189 36.8296 17.6294C36.7441 20.2611 38.0843 23.2733 36.0649 26.2892" stroke="white" stroke-width="0.933465" stroke-linecap="round" stroke-linejoin="round"/>
</svg>